<svg xmlns="http://www.w3.org/2000/svg" width="157" height="115" viewBox="0 0 157 115">
  <g id="Group_46" data-name="Group 46" transform="translate(-1377 -140)">
    <text id="Certificate" transform="translate(1392 241)" fill="#a87bff" font-size="14" font-family="Poppins-Medium, Poppins" font-weight="500"><tspan x="0" y="0">Certificate</tspan></text>
    <text id="Get" transform="translate(1392 168)" fill="#cfedff" font-size="18" font-family="Poppins-Medium, Poppins" font-weight="500"><tspan x="0" y="0">Get</tspan></text>
    <g id="Rectangle_40" data-name="Rectangle 40" transform="translate(1377 140)" fill="none" stroke="#6a4fc3" stroke-width="1">
      <rect width="157" height="115" rx="8" stroke="none"/>
      <rect x="0.5" y="0.5" width="156" height="114" rx="7.5" fill="none"/>
    </g>
    <text id="NFT" transform="translate(1392 216)" fill="#fff" font-size="46" font-family="Poppins-SemiBold, Poppins" font-weight="600"><tspan x="0" y="0">NFT</tspan></text>
    <g id="noun-info-1156901" transform="translate(1347.59 127.5)">
      <path id="Path_121" data-name="Path 121" d="M104,28a6,6,0,1,0,6,6A5.992,5.992,0,0,0,104,28Zm.667,8.787a.667.667,0,0,1-1.333,0V33.373a.667.667,0,0,1,1.333,0Zm-.653-4.92a.653.653,0,1,1,.653-.653A.654.654,0,0,1,104.013,31.867Z" transform="translate(-15.958 0)" fill="#7864c6"/>
    </g>
  </g>
</svg>
