<svg xmlns="http://www.w3.org/2000/svg" width="157" height="115" viewBox="0 0 157 115">
  <g id="Group_47" data-name="Group 47" transform="translate(-1205 -140)">
    <text id="_32.30_USD" data-name="32.30 USD" transform="translate(1229 241)" fill="#a87bff" font-size="14" font-family="Poppins-Medium, Poppins" font-weight="500"><tspan x="0" y="0">32.30 USD</tspan></text>
    <text id="Earn" transform="translate(1223 168)" fill="#cfedff" font-size="18" font-family="Poppins-Medium, Poppins" font-weight="500"><tspan x="0" y="0">Earn</tspan></text>
    <g id="Group_45" data-name="Group 45" transform="translate(-153 -19)">
      <text id="CAKE" transform="translate(1432 227)" fill="#cebcff" font-size="23" font-family="Poppins-Medium, Poppins" font-weight="500"><tspan x="0" y="0">CAKE</tspan></text>
      <text id="_10" data-name="10" transform="translate(1378 235)" fill="#fff" font-size="46" font-family="Poppins-SemiBold, Poppins" font-weight="600"><tspan x="0" y="0">10</tspan></text>
    </g>
    <g id="Rectangle_39" data-name="Rectangle 39" transform="translate(1205 140)" fill="none" stroke="#6a4fc3" stroke-width="1">
      <rect width="157" height="115" rx="8" stroke="none"/>
      <rect x="0.5" y="0.5" width="156" height="114" rx="7.5" fill="none"/>
    </g>
    <g id="noun-info-1156901" transform="translate(1186 129.644)">
      <path id="Path_121" data-name="Path 121" d="M104,28a6,6,0,1,0,6,6A5.992,5.992,0,0,0,104,28Zm.667,8.787a.667.667,0,0,1-1.333,0V33.373a.667.667,0,0,1,1.333,0Zm-.653-4.92a.653.653,0,1,1,.653-.653A.654.654,0,0,1,104.013,31.867Z" transform="translate(-15.958 0)" fill="#7864c6"/>
    </g>
  </g>
</svg>
