<svg xmlns="http://www.w3.org/2000/svg" width="450.883" height="20.5" viewBox="0 0 450.883 20.5">
  <g id="Group_48" data-name="Group 48" transform="translate(-535 -361.5)">
    <text id="_30_min_Duration" data-name="30 min Duration" transform="translate(562 377)" fill="#fff" font-size="14" font-family="Poppins-Medium, Poppins" font-weight="500"><tspan x="0" y="0">30 min Duration</tspan></text>
    <text id="Beginners" transform="translate(741 377)" fill="#fff" font-size="14" font-family="Poppins-Medium, Poppins" font-weight="500"><tspan x="0" y="0">Beginners</tspan></text>
    <text id="_221_Participants" data-name="221 Participants" transform="translate(875.883 377)" fill="#fff" font-size="14" font-family="Poppins-Medium, Poppins" font-weight="500"><tspan x="0" y="0">221 Participants</tspan></text>
    <g id="noun-time-1223602" transform="translate(448.2 345.199)">
      <path id="Path_122" data-name="Path 122" d="M96.8,16.8a10,10,0,1,0,10,10,10.011,10.011,0,0,0-10-10Zm0,17.872a7.872,7.872,0,1,1,7.872-7.872A7.881,7.881,0,0,1,96.8,34.673Zm3.12-12.426-2.057,2.018v-4.1H95.736v4.608a2.288,2.288,0,1,0,3.253,1.365l2.421-2.376Z" fill="#cfedff"/>
    </g>
    <g id="noun-performance-4744670" transform="translate(543.416 261.197)">
      <path id="Path_123" data-name="Path 123" d="M184.929,101.162a26.391,26.391,0,0,0-8.676,0,6.444,6.444,0,0,0-5.309,5.309,26.392,26.392,0,0,0,0,8.676,6.443,6.443,0,0,0,5.309,5.309,27.32,27.32,0,0,0,8.676-.025,6.443,6.443,0,0,0,5.309-5.309,26.77,26.77,0,0,0-.012-8.663,6.444,6.444,0,0,0-5.3-5.3ZM173.1,110.8a23.949,23.949,0,0,1,.312-3.929,3.945,3.945,0,0,1,3.254-3.254,23.892,23.892,0,0,1,7.855,0,3.945,3.945,0,0,1,3.123,2.73l-4.978,4.987a.4.4,0,0,1-.547.022l-1.974-1.693a3.023,3.023,0,0,0-4.085.156L173.17,112.7c-.047-.637-.075-1.28-.075-1.9Zm14.678,3.929a3.945,3.945,0,0,1-3.254,3.254,24.879,24.879,0,0,1-7.858,0,3.945,3.945,0,0,1-2.942-2.289l4.1-4.107a.512.512,0,0,1,.69-.028l1.974,1.693a2.914,2.914,0,0,0,3.938-.15l3.62-3.617c.025.437.04.877.04,1.315a23.973,23.973,0,0,1-.312,3.929Z" fill="#cfedff"/>
    </g>
    <g id="noun-user-1199845" transform="translate(637.917 227.256)">
      <path id="Path_124" data-name="Path 124" d="M228.946,153.454H212.984a.9.9,0,0,1-.9-.976,6.638,6.638,0,0,1,6.58-6.057h4.6a6.638,6.638,0,0,1,6.58,6.057.9.9,0,0,1-.9.976Zm-14.879-1.8h13.8a4.833,4.833,0,0,0-4.6-3.426h-4.6a4.833,4.833,0,0,0-4.6,3.426Zm6.9-6.672a4.265,4.265,0,0,1-4.261-4.261V139a4.261,4.261,0,1,1,8.521,0v1.713A4.265,4.265,0,0,1,220.965,144.979Zm0-8.431A2.46,2.46,0,0,0,218.508,139v1.713a2.457,2.457,0,1,0,4.914,0V139A2.46,2.46,0,0,0,220.965,136.548Z" transform="translate(0)" fill="#cfedff" stroke="#cfedff" stroke-width="1"/>
    </g>
  </g>
</svg>
