<svg xmlns="http://www.w3.org/2000/svg" width="24" height="24" viewBox="0 0 24 24">
  <g id="Linkedin" transform="translate(-1534 -115)">
    <rect id="Rectangle_32" data-name="Rectangle 32" width="24" height="24" rx="4" transform="translate(1534 115)" fill="#3828be"/>
    <path id="_367593_linkedin_business_network_social_icon" data-name="367593_linkedin_business_network_social_icon" d="M46.168,59.4h2.838v8.541H46.168Zm1.438-4.117a1.479,1.479,0,1,0-.037,2.951h.018a1.48,1.48,0,1,0,.019-2.951Zm8.368,3.916a2.818,2.818,0,0,0-2.558,1.41V59.4H50.578c.038.8,0,8.541,0,8.541h2.839v-4.77a1.955,1.955,0,0,1,.093-.693,1.554,1.554,0,0,1,1.456-1.038c1.028,0,1.439.784,1.439,1.931v4.57h2.839v-4.9C59.243,60.415,57.843,59.194,55.974,59.194Z" transform="translate(1494 64.722)" fill="#fff"/>
  </g>
</svg>
